<?xml version="1.0" standalone="no"?>
<!DOCTYPE svg PUBLIC "-//W3C//DTD SVG 20010904//EN"
 "http://www.w3.org/TR/2001/REC-SVG-20010904/DTD/svg10.dtd">
<svg version="1.0" xmlns="http://www.w3.org/2000/svg"
 width="250.000000pt" height="250.000000pt" viewBox="0 0 250.000000 250.000000"
 preserveAspectRatio="xMidYMid meet">
<metadata>
Created by potrace 1.14, written by Peter Selinger 2001-2017
</metadata>
<g transform="translate(0.000000,250.000000) scale(0.100000,-0.100000)"
fill="#000000" stroke="none">
<path d="M1529 2146 c-3 -3 -20 -8 -39 -11 -53 -9 -259 -81 -345 -120 -372
-169 -638 -449 -711 -746 -16 -61 -12 -219 6 -278 57 -191 222 -338 442 -397
64 -17 66 -19 72 -55 8 -51 39 -120 82 -185 l36 -54 113 0 114 0 -19 66 c-28
96 -36 184 -19 185 22 1 56 7 162 30 378 79 589 238 640 481 26 124 4 255 -76
453 -70 172 -157 304 -307 465 -29 30 -96 115 -113 143 -17 26 -28 33 -38 23z
m-157 -273 c-19 -38 -68 -178 -78 -224 -17 -78 -17 -74 8 -56 99 71 266 95
373 54 l40 -16 -70 1 c-89 0 -190 -25 -284 -71 -114 -56 -139 -82 -161 -171
-11 -41 -18 -76 -16 -78 2 -1 19 6 38 17 174 97 383 105 551 20 62 -32 72 -50
15 -29 -60 22 -235 22 -322 0 -96 -24 -227 -92 -282 -145 -39 -37 -42 -45 -49
-110 -4 -38 -8 -82 -10 -98 -3 -37 9 -42 45 -17 118 84 337 120 516 85 130
-26 137 -33 34 -31 -241 5 -443 -67 -579 -205 -48 -49 -54 -75 -49 -198 1 -49
0 -87 -4 -83 -24 24 -59 153 -63 230 -5 94 -5 93 -109 172 -81 61 -176 101
-259 109 l-72 7 36 12 c55 19 101 21 166 8 64 -14 156 -53 204 -86 16 -12 29
-20 30 -18 5 23 15 101 24 198 5 51 3 57 -26 89 -69 72 -197 132 -288 133 -23
0 -40 3 -37 5 10 10 122 33 162 33 56 0 142 -27 182 -57 18 -14 35 -23 37 -22
8 9 45 130 45 148 0 33 -89 122 -155 152 -33 16 -66 29 -73 29 -7 0 -11 4 -7
9 9 16 134 2 183 -19 25 -11 60 -32 78 -45 l32 -24 40 83 c41 85 95 171 140
219 34 36 36 34 14 -10z"/>
</g>
</svg>
